<svg xmlns="http://www.w3.org/2000/svg" width="960" height="520" viewBox="0 0 960 520" fill="none">
  <rect width="960" height="520" fill="#F2EBDD"/>
  <rect x="24" y="24" width="912" height="472" rx="28" fill="#F7F1E6" stroke="#D8C9AF"/>
  <text x="56" y="72" fill="#243548" font-family="Arial, sans-serif" font-size="24" font-weight="700">Lore // Protocol Diligence Memo</text>
  <text x="56" y="100" fill="#7C6E5B" font-family="Arial, sans-serif" font-size="13">governance, fee retention, treasury runway, unlock pressure</text>

  <rect x="56" y="132" width="260" height="300" rx="20" fill="#F3E9D8" stroke="#D8C9AF"/>
  <text x="76" y="164" fill="#243548" font-family="Arial, sans-serif" font-size="16" font-weight="700">Kamino Memo</text>
  <text x="76" y="196" fill="#5C6C79" font-family="Arial, sans-serif" font-size="13">Verdict</text>
  <text x="76" y="224" fill="#3A8A62" font-family="Arial, sans-serif" font-size="28" font-weight="700">ACCUMULATE</text>
  <text x="76" y="264" fill="#5C6C79" font-family="Arial, sans-serif" font-size="13">Summary</text>
  <text x="76" y="292" fill="#243548" font-family="Arial, sans-serif" font-size="14">Deep usage, healthy runway,</text>
  <text x="76" y="314" fill="#243548" font-family="Arial, sans-serif" font-size="14">and manageable next unlocks.</text>
  <text x="76" y="352" fill="#5C6C79" font-family="Arial, sans-serif" font-size="13">Watch</text>
  <text x="76" y="380" fill="#243548" font-family="Arial, sans-serif" font-size="14">Points incentives still distort</text>
  <text x="76" y="402" fill="#243548" font-family="Arial, sans-serif" font-size="14">headline user demand metrics.</text>

  <rect x="338" y="132" width="278" height="300" rx="20" fill="#FCF9F1" stroke="#D8C9AF"/>
  <text x="358" y="164" fill="#243548" font-family="Arial, sans-serif" font-size="16" font-weight="700">Diligence Scores</text>
  <text x="358" y="204" fill="#5C6C79" font-family="Arial, sans-serif" font-size="12">governance</text>
  <rect x="470" y="192" width="110" height="16" rx="8" fill="#DDE3EA"/><rect x="470" y="192" width="80" height="16" rx="8" fill="#6E9C7A"/>
  <text x="590" y="205" fill="#243548" font-family="Arial, sans-serif" font-size="12">0.73</text>
  <text x="358" y="244" fill="#5C6C79" font-family="Arial, sans-serif" font-size="12">fee retention</text>
  <rect x="470" y="232" width="110" height="16" rx="8" fill="#DDE3EA"/><rect x="470" y="232" width="76" height="16" rx="8" fill="#7BA4C2"/>
  <text x="590" y="245" fill="#243548" font-family="Arial, sans-serif" font-size="12">0.69</text>
  <text x="358" y="284" fill="#5C6C79" font-family="Arial, sans-serif" font-size="12">treasury runway</text>
  <rect x="470" y="272" width="110" height="16" rx="8" fill="#DDE3EA"/><rect x="470" y="272" width="92" height="16" rx="8" fill="#D2A65E"/>
  <text x="590" y="285" fill="#243548" font-family="Arial, sans-serif" font-size="12">0.84</text>
  <text x="358" y="324" fill="#5C6C79" font-family="Arial, sans-serif" font-size="12">unlock overhang</text>
  <rect x="470" y="312" width="110" height="16" rx="8" fill="#DDE3EA"/><rect x="470" y="312" width="71" height="16" rx="8" fill="#D78367"/>
  <text x="590" y="325" fill="#243548" font-family="Arial, sans-serif" font-size="12">0.65</text>
  <text x="358" y="364" fill="#5C6C79" font-family="Arial, sans-serif" font-size="12">traction quality</text>
  <rect x="470" y="352" width="110" height="16" rx="8" fill="#DDE3EA"/><rect x="470" y="352" width="78" height="16" rx="8" fill="#9BBA8E"/>
  <text x="590" y="365" fill="#243548" font-family="Arial, sans-serif" font-size="12">0.71</text>

  <rect x="638" y="132" width="242" height="300" rx="20" fill="#FCF9F1" stroke="#D8C9AF"/>
  <text x="658" y="164" fill="#243548" font-family="Arial, sans-serif" font-size="16" font-weight="700">Memo Rail</text>
  <text x="658" y="208" fill="#243548" font-family="Arial, sans-serif" font-size="14">Bullish</text>
  <text x="658" y="234" fill="#5C6C79" font-family="Arial, sans-serif" font-size="13">deep fee mix across lending</text>
  <text x="658" y="256" fill="#5C6C79" font-family="Arial, sans-serif" font-size="13">and liquidity management</text>
  <text x="658" y="296" fill="#243548" font-family="Arial, sans-serif" font-size="14">Bearish</text>
  <text x="658" y="322" fill="#5C6C79" font-family="Arial, sans-serif" font-size="13">points activity clouds real</text>
  <text x="658" y="344" fill="#5C6C79" font-family="Arial, sans-serif" font-size="13">post-incentive retention</text>
  <text x="658" y="384" fill="#243548" font-family="Arial, sans-serif" font-size="14">Action</text>
  <text x="658" y="410" fill="#5C6C79" font-family="Arial, sans-serif" font-size="13">Accumulate on pullbacks</text>
  <text x="658" y="432" fill="#5C6C79" font-family="Arial, sans-serif" font-size="13">while unlock profile stays tame</text>
</svg>
