<svg width="720" height="380" viewBox="0 0 720 380" xmlns="http://www.w3.org/2000/svg" font-family="'Inter','Segoe UI','Arial',sans-serif">
  <defs>
    <linearGradient id="tbg" x1="0" y1="0" x2="0" y2="1">
      <stop offset="0%" stop-color="#0c1117"/>
      <stop offset="100%" stop-color="#080d12"/>
    </linearGradient>
  </defs>
  <rect width="720" height="380" fill="url(#tbg)"/>

  <!-- header -->
  <rect x="0" y="0" width="720" height="48" fill="#0f1923"/>
  <rect x="0" y="48" width="720" height="1" fill="#1e3a5f"/>
  <text x="36" y="22" fill="#38bdf8" font-size="14" font-weight="700">Lore</text>
  <text x="86" y="22" fill="#334155" font-size="12">Protocol Comparison · Solana DeFi · 5 protocols analyzed</text>
  <text x="36" y="40" fill="#1e3a5f" font-size="10">sorted by overall score · updated Apr 4 2026</text>

  <!-- table header -->
  <rect x="0" y="49" width="720" height="36" fill="#0a1420"/>
  <text x="36"  y="72" fill="#475569" font-size="11" font-weight="600">PROTOCOL</text>
  <text x="200" y="72" fill="#475569" font-size="11" font-weight="600">CATEGORY</text>
  <text x="300" y="72" fill="#475569" font-size="11" font-weight="600">TVL</text>
  <text x="390" y="72" fill="#475569" font-size="11" font-weight="600">SCORE</text>
  <text x="490" y="72" fill="#475569" font-size="11" font-weight="600">SECURITY</text>
  <text x="590" y="72" fill="#475569" font-size="11" font-weight="600">VERDICT</text>
  <rect x="0" y="85" width="720" height="1" fill="#1e3a5f"/>

  <!-- row 1 - Jupiter -->
  <rect x="0" y="86" width="720" height="44" fill="#091520"/>
  <text x="36"  y="112" fill="#e2e8f0" font-size="13" font-weight="600">Jupiter</text>
  <text x="36"  y="126" fill="#334155" font-size="10">jup.ag</text>
  <text x="200" y="113" fill="#64748b" font-size="12">dex</text>
  <text x="300" y="113" fill="#e2e8f0" font-size="12">$2.8B</text>
  <text x="390" y="113" fill="#38bdf8" font-size="14" font-weight="700">0.88</text>
  <rect x="490" y="104" width="60" height="10" rx="5" fill="#0f2040"/>
  <rect x="490" y="104" width="50" height="10" rx="5" fill="#4ade80"/>
  <text x="590" y="115" fill="#4ade80" font-size="12" font-weight="700">ACCUMULATE</text>
  <rect x="0" y="130" width="720" height="1" fill="#1e3a5f" opacity="0.5"/>

  <!-- row 2 - Kamino -->
  <rect x="0" y="131" width="720" height="44" fill="#080e18"/>
  <text x="36"  y="157" fill="#e2e8f0" font-size="13" font-weight="600">Kamino Finance</text>
  <text x="36"  y="171" fill="#334155" font-size="10">kamino.finance</text>
  <text x="200" y="158" fill="#64748b" font-size="12">lending</text>
  <text x="300" y="158" fill="#e2e8f0" font-size="12">$1.2B</text>
  <text x="390" y="158" fill="#38bdf8" font-size="14" font-weight="700">0.76</text>
  <rect x="490" y="149" width="60" height="10" rx="5" fill="#0f2040"/>
  <rect x="490" y="149" width="44" height="10" rx="5" fill="#4ade80"/>
  <text x="590" y="160" fill="#4ade80" font-size="12" font-weight="700">ACCUMULATE</text>
  <rect x="0" y="175" width="720" height="1" fill="#1e3a5f" opacity="0.5"/>

  <!-- row 3 - Jito -->
  <rect x="0" y="176" width="720" height="44" fill="#091520"/>
  <text x="36"  y="202" fill="#e2e8f0" font-size="13" font-weight="600">Jito</text>
  <text x="36"  y="216" fill="#334155" font-size="10">jito.network</text>
  <text x="200" y="203" fill="#64748b" font-size="12">liquid staking</text>
  <text x="300" y="203" fill="#e2e8f0" font-size="12">$980M</text>
  <text x="390" y="203" fill="#38bdf8" font-size="14" font-weight="700">0.73</text>
  <rect x="490" y="194" width="60" height="10" rx="5" fill="#0f2040"/>
  <rect x="490" y="194" width="42" height="10" rx="5" fill="#4ade80"/>
  <text x="590" y="205" fill="#4ade80" font-size="12" font-weight="700">ACCUMULATE</text>
  <rect x="0" y="220" width="720" height="1" fill="#1e3a5f" opacity="0.5"/>

  <!-- row 4 - MarginFi -->
  <rect x="0" y="221" width="720" height="44" fill="#080e18"/>
  <text x="36"  y="247" fill="#e2e8f0" font-size="13" font-weight="600">MarginFi</text>
  <text x="36"  y="261" fill="#334155" font-size="10">marginfi.com</text>
  <text x="200" y="248" fill="#64748b" font-size="12">lending</text>
  <text x="300" y="248" fill="#e2e8f0" font-size="12">$620M</text>
  <text x="390" y="248" fill="#facc15" font-size="14" font-weight="700">0.61</text>
  <rect x="490" y="239" width="60" height="10" rx="5" fill="#0f2040"/>
  <rect x="490" y="239" width="28" height="10" rx="5" fill="#facc15"/>
  <text x="590" y="250" fill="#facc15" font-size="12" font-weight="700">WATCH</text>
  <rect x="0" y="265" width="720" height="1" fill="#1e3a5f" opacity="0.5"/>

  <!-- row 5 - Drift -->
  <rect x="0" y="266" width="720" height="44" fill="#091520"/>
  <text x="36"  y="292" fill="#e2e8f0" font-size="13" font-weight="600">Drift Protocol</text>
  <text x="36"  y="306" fill="#334155" font-size="10">drift.trade</text>
  <text x="200" y="293" fill="#64748b" font-size="12">perps</text>
  <text x="300" y="293" fill="#e2e8f0" font-size="12">$410M</text>
  <text x="390" y="293" fill="#facc15" font-size="14" font-weight="700">0.58</text>
  <rect x="490" y="284" width="60" height="10" rx="5" fill="#0f2040"/>
  <rect x="490" y="284" width="22" height="10" rx="5" fill="#facc15"/>
  <text x="590" y="295" fill="#facc15" font-size="12" font-weight="700">WATCH</text>

  <!-- footer -->
  <rect x="0" y="356" width="720" height="24" fill="#080d12"/>
  <rect x="0" y="356" width="720" height="1" fill="#1e3a5f"/>
  <text x="360" y="373" fill="#1e3a5f" font-size="10" text-anchor="middle">lore · defillama tvl data · claude agent sdk · research refreshes daily</text>
</svg>
