<svg width="720" height="480" viewBox="0 0 720 480" xmlns="http://www.w3.org/2000/svg" font-family="'Inter','Segoe UI','Arial',sans-serif">
  <defs>
    <linearGradient id="bg" x1="0" y1="0" x2="0" y2="1">
      <stop offset="0%" stop-color="#0c1117"/>
      <stop offset="100%" stop-color="#080d12"/>
    </linearGradient>
  </defs>

  <rect width="720" height="480" fill="url(#bg)"/>

  <!-- document header -->
  <rect x="0" y="0" width="720" height="60" fill="#0f1923"/>
  <rect x="0" y="60" width="720" height="2" fill="#1e3a5f"/>
  <text x="36" y="28" fill="#38bdf8" font-size="14" font-weight="700">Lore</text>
  <text x="86" y="28" fill="#334155" font-size="12">Protocol Research</text>
  <text x="36" y="50" fill="#1e3a5f" font-size="11">Kamino Finance · kamino.finance · Solana · lending</text>
  <!-- verdict badge -->
  <rect x="580" y="14" width="108" height="32" rx="6" fill="#052e16"/>
  <text x="634" y="35" fill="#4ade80" font-size="13" font-weight="700" text-anchor="middle">ACCUMULATE</text>

  <!-- overall score banner -->
  <rect x="36" y="80" width="648" height="52" rx="8" fill="#0f1923" stroke="#1e3a5f" stroke-width="1"/>
  <text x="60" y="100" fill="#64748b" font-size="10" letter-spacing="1">OVERALL SCORE</text>
  <text x="60" y="122" fill="#38bdf8" font-size="28" font-weight="700">0.76</text>
  <text x="150" y="122" fill="#334155" font-size="13">/ 1.00</text>
  <text x="260" y="100" fill="#64748b" font-size="10">GENERATED</text>
  <text x="260" y="122" fill="#475569" font-size="12">Apr 4, 2026 · 14:32 UTC</text>
  <text x="480" y="100" fill="#64748b" font-size="10">DATA SOURCES</text>
  <text x="480" y="122" fill="#475569" font-size="12">DefiLlama · GitHub · Docs · Audits</text>

  <!-- score bars section -->
  <text x="36" y="162" fill="#334155" font-size="10" letter-spacing="2">RESEARCH SCORES</text>
  <rect x="36" y="168" width="648" height="1" fill="#1e3a5f"/>

  <!-- security bar -->
  <text x="36" y="192" fill="#94a3b8" font-size="12">Security</text>
  <rect x="156" y="180" width="360" height="14" rx="7" fill="#0f1923"/>
  <rect x="156" y="180" width="266" height="14" rx="7" fill="#4ade80"/>
  <text x="526" y="193" fill="#4ade80" font-size="12" font-weight="600">0.74</text>
  <text x="580" y="193" fill="#334155" font-size="10">Halborn · Neodyme · Sec3</text>

  <!-- traction bar -->
  <text x="36" y="218" fill="#94a3b8" font-size="12">Traction</text>
  <rect x="156" y="206" width="360" height="14" rx="7" fill="#0f1923"/>
  <rect x="156" y="206" width="302" height="14" rx="7" fill="#38bdf8"/>
  <text x="526" y="219" fill="#38bdf8" font-size="12" font-weight="600">0.84</text>
  <text x="580" y="219" fill="#334155" font-size="10">$1.2B TVL · +12% 7d</text>

  <!-- tokenomics bar -->
  <text x="36" y="244" fill="#94a3b8" font-size="12">Tokenomics</text>
  <rect x="156" y="232" width="360" height="14" rx="7" fill="#0f1923"/>
  <rect x="156" y="232" width="230" height="14" rx="7" fill="#a78bfa"/>
  <text x="526" y="245" fill="#a78bfa" font-size="12" font-weight="600">0.64</text>
  <text x="580" y="245" fill="#334155" font-size="10">KMNO · mcap/TVL 0.8x</text>

  <!-- team bar -->
  <text x="36" y="270" fill="#94a3b8" font-size="12">Team</text>
  <rect x="156" y="258" width="360" height="14" rx="7" fill="#0f1923"/>
  <rect x="156" y="258" width="252" height="14" rx="7" fill="#fb923c"/>
  <text x="526" y="271" fill="#fb923c" font-size="12" font-weight="600">0.70</text>
  <text x="580" y="271" fill="#334155" font-size="10">semi-doxxed · consistent</text>

  <!-- moat bar -->
  <text x="36" y="296" fill="#94a3b8" font-size="12">Moat</text>
  <rect x="156" y="284" width="360" height="14" rx="7" fill="#0f1923"/>
  <rect x="156" y="284" width="266" height="14" rx="7" fill="#f472b6"/>
  <text x="526" y="297" fill="#f472b6" font-size="12" font-weight="600">0.74</text>
  <text x="580" y="297" fill="#334155" font-size="10">deep liquidity lock-in</text>

  <!-- divider -->
  <rect x="36" y="314" width="648" height="1" fill="#1e3a5f"/>

  <!-- bullish / bearish columns -->
  <text x="36" y="334" fill="#4ade80" font-size="11" font-weight="600">✓ BULLISH</text>
  <text x="36" y="352" fill="#64748b" font-size="11">· $1.2B TVL with consistent week-on-week growth</text>
  <text x="36" y="368" fill="#64748b" font-size="11">· 3 independent audits — no material findings in 18 months</text>
  <text x="36" y="384" fill="#64748b" font-size="11">· KMNO trading at 0.8x TVL — historically undervalued for this category</text>

  <text x="36" y="408" fill="#f87171" font-size="11" font-weight="600">✗ BEARISH</text>
  <text x="36" y="426" fill="#64748b" font-size="11">· Smart contract upgrade keys not yet moved to multisig</text>
  <text x="36" y="442" fill="#64748b" font-size="11">· KMNO token unlock cliff approaching Q3 2026 — potential sell pressure</text>

  <!-- footer -->
  <rect x="0" y="460" width="720" height="20" fill="#080d12"/>
  <text x="360" y="474" fill="#1e3a5f" font-size="10" text-anchor="middle">lore · built with claude agent sdk · defillama · research refreshes daily</text>
</svg>
